<svg preserveAspectRatio="none" width="100%" height="100%" overflow="visible" style="display: block;" viewBox="0 0 20 25" fill="none" xmlns="http://www.w3.org/2000/svg">
<g id="Container">
<path id="Icon" d="M10 25C7.10417 24.2708 4.71354 22.6094 2.82812 20.0156C0.942708 17.4219 0 14.5417 0 11.375V3.75L10 0L20 3.75V11.375C20 14.5417 19.0573 17.4219 17.1719 20.0156C15.2865 22.6094 12.8958 24.2708 10 25V25M10 22.375C12.0208 21.75 13.7083 20.5156 15.0625 18.6719C16.4167 16.8281 17.2083 14.7708 17.4375 12.5H10V2.65625L2.5 5.46875V11.375C2.5 11.6042 2.5 11.7917 2.5 11.9375C2.5 12.0833 2.52083 12.2708 2.5625 12.5H10V22.375V22.375" fill="var(--fill-0, #0F172A)"/>
</g>
</svg>
