<svg preserveAspectRatio="none" width="100%" height="100%" overflow="visible" style="display: block;" viewBox="0 0 27.5 24.75" fill="none" xmlns="http://www.w3.org/2000/svg">
<g id="Container">
<path id="Icon" d="M23.5 24.75L20.1875 21.5H6.875C4.95833 21.5 3.33333 20.8333 2 19.5C0.666667 18.1667 0 16.5417 0 14.625C0 13.0208 0.494792 11.5938 1.48438 10.3438C2.47396 9.09375 3.75 8.29167 5.3125 7.9375C5.375 7.77083 5.4375 7.60938 5.5 7.45312C5.5625 7.29688 5.625 7.125 5.6875 6.9375L0.5 1.75L2.25 0L25.25 23L23.5 24.75V24.75M6.875 19H17.6875L7.625 8.9375C7.58333 9.16667 7.55208 9.38542 7.53125 9.59375C7.51042 9.80208 7.5 10.0208 7.5 10.25H6.875C5.66667 10.25 4.63542 10.6771 3.78125 11.5312C2.92708 12.3854 2.5 13.4167 2.5 14.625C2.5 15.8333 2.92708 16.8646 3.78125 17.7188C4.63542 18.5729 5.66667 19 6.875 19V19M12.6562 13.9688V13.9688V13.9688V13.9688V13.9688V13.9688V13.9688V13.9688V13.9688V13.9688V13.9688V13.9688M25.75 19.9375L23.9375 18.1875C24.2917 17.8958 24.5573 17.5573 24.7344 17.1719C24.9115 16.7865 25 16.3542 25 15.875C25 15 24.6979 14.2604 24.0938 13.6562C23.4896 13.0521 22.75 12.75 21.875 12.75H20V10.25C20 8.52083 19.3906 7.04688 18.1719 5.82812C16.9531 4.60938 15.4792 4 13.75 4C13.1875 4 12.6458 4.06771 12.125 4.20312C11.6042 4.33854 11.1042 4.55208 10.625 4.84375L8.8125 3.03125C9.54167 2.53125 10.3177 2.15104 11.1406 1.89062C11.9635 1.63021 12.8333 1.5 13.75 1.5C16.1875 1.5 18.2552 2.34896 19.9531 4.04688C21.651 5.74479 22.5 7.8125 22.5 10.25V10.25V10.25C23.9375 10.4167 25.1302 11.0365 26.0781 12.1094C27.026 13.1823 27.5 14.4375 27.5 15.875C27.5 16.6875 27.3438 17.4427 27.0312 18.1406C26.7188 18.8385 26.2917 19.4375 25.75 19.9375V19.9375M17.2812 11.5312V11.5312V11.5312V11.5312V11.5312V11.5312V11.5312V11.5312V11.5312V11.5312V11.5312V11.5312V11.5312V11.5312" fill="var(--fill-0, #3C83F6)"/>
</g>
</svg>
