<svg preserveAspectRatio="none" width="100%" height="100%" overflow="visible" style="display: block;" viewBox="0 0 166.667 166.667" fill="none" xmlns="http://www.w3.org/2000/svg">
<g id="Container">
<path id="Icon" d="M83.3333 166.667C71.8056 166.667 60.9722 164.479 50.8333 160.104C40.6944 155.729 31.875 149.792 24.375 142.292C16.875 134.792 10.9375 125.972 6.5625 115.833C2.1875 105.694 0 94.8611 0 83.3333C0 71.8056 2.1875 60.9722 6.5625 50.8333C10.9375 40.6944 16.875 31.875 24.375 24.375C31.875 16.875 40.6944 10.9375 50.8333 6.5625C60.9722 2.1875 71.8056 0 83.3333 0C94.8611 0 105.694 2.1875 115.833 6.5625C125.972 10.9375 134.792 16.875 142.292 24.375C149.792 31.875 155.729 40.6944 160.104 50.8333C164.479 60.9722 166.667 71.8056 166.667 83.3333C166.667 94.8611 164.479 105.694 160.104 115.833C155.729 125.972 149.792 134.792 142.292 142.292C134.792 149.792 125.972 155.729 115.833 160.104C105.694 164.479 94.8611 166.667 83.3333 166.667V166.667M75 149.583V133.333C70.4167 133.333 66.4931 131.701 63.2292 128.438C59.9653 125.174 58.3333 121.25 58.3333 116.667V108.333L18.3333 68.3333C17.9167 70.8333 17.5347 73.3333 17.1875 75.8333C16.8403 78.3333 16.6667 80.8333 16.6667 83.3333C16.6667 100.139 22.1875 114.861 33.2292 127.5C44.2708 140.139 58.1944 147.5 75 149.583V149.583M132.5 128.333C138.194 122.083 142.535 115.104 145.521 107.396C148.507 99.6875 150 91.6667 150 83.3333C150 69.7222 146.215 57.2917 138.646 46.0417C131.076 34.7917 120.972 26.6667 108.333 21.6667V25C108.333 29.5833 106.701 33.5069 103.438 36.7708C100.174 40.0347 96.25 41.6667 91.6667 41.6667H75V58.3333C75 60.6944 74.2014 62.6736 72.6042 64.2708C71.0069 65.8681 69.0278 66.6667 66.6667 66.6667H50V83.3333H100C102.361 83.3333 104.34 84.1319 105.938 85.7292C107.535 87.3264 108.333 89.3056 108.333 91.6667V116.667H116.667C120.278 116.667 123.542 117.743 126.458 119.896C129.375 122.049 131.389 124.861 132.5 128.333V128.333" fill="var(--fill-0, #3C83F6)" fill-opacity="0.2"/>
</g>
</svg>
