<svg preserveAspectRatio="none" width="100%" height="100%" overflow="visible" style="display: block;" viewBox="0 0 32 36" fill="none" xmlns="http://www.w3.org/2000/svg">
<g id="Overlay">
<rect width="32" height="36" rx="16" fill="var(--fill-0, white)" fill-opacity="0.2"/>
<path id="Icon" d="M16 28C13.6833 27.4167 11.7708 26.0875 10.2625 24.0125C8.75417 21.9375 8 19.6333 8 17.1V11L16 8L24 11V17.1C24 19.6333 23.2458 21.9375 21.7375 24.0125C20.2292 26.0875 18.3167 27.4167 16 28V28M16 25.9C17.6167 25.4 18.9667 24.4125 20.05 22.9375C21.1333 21.4625 21.7667 19.8167 21.95 18H16V10.125L10 12.375V17.1C10 17.2833 10 17.4333 10 17.55C10 17.6667 10.0167 17.8167 10.05 18H16V25.9V25.9" fill="var(--fill-0, white)"/>
</g>
</svg>
