<svg preserveAspectRatio="none" width="100%" height="100%" overflow="visible" style="display: block;" viewBox="0 0 25 25" fill="none" xmlns="http://www.w3.org/2000/svg">
<g id="Container">
<path id="Icon" d="M12.5 25C10.7708 25 9.14583 24.6719 7.625 24.0156C6.10417 23.3594 4.78125 22.4688 3.65625 21.3438C2.53125 20.2188 1.64062 18.8958 0.984375 17.375C0.328125 15.8542 0 14.2292 0 12.5H2.5C2.5 13.875 2.76042 15.1719 3.28125 16.3906C3.80208 17.6094 4.51562 18.6719 5.42188 19.5781C6.32812 20.4844 7.39062 21.2031 8.60938 21.7344C9.82812 22.2656 11.125 22.5312 12.5 22.5312C15.2917 22.5312 17.6562 21.5625 19.5938 19.625C21.5312 17.6875 22.5 15.3229 22.5 12.5312C22.5 9.73958 21.5312 7.375 19.5938 5.4375C17.6562 3.5 15.2917 2.53125 12.5 2.53125C10.6458 2.53125 8.96354 2.98438 7.45312 3.89062C5.94271 4.79688 4.75 6 3.875 7.5H7.5V10H0V2.5H2.5V5C3.64583 3.47917 5.08333 2.26562 6.8125 1.35938C8.54167 0.453125 10.4375 0 12.5 0C14.2292 0 15.8542 0.328125 17.375 0.984375C18.8958 1.64062 20.2188 2.53125 21.3438 3.65625C22.4688 4.78125 23.3594 6.10417 24.0156 7.625C24.6719 9.14583 25 10.7708 25 12.5C25 14.2292 24.6719 15.8542 24.0156 17.375C23.3594 18.8958 22.4688 20.2188 21.3438 21.3438C20.2188 22.4688 18.8958 23.3594 17.375 24.0156C15.8542 24.6719 14.2292 25 12.5 25V25M10 17.5C9.64583 17.5 9.34896 17.3802 9.10938 17.1406C8.86979 16.901 8.75 16.6042 8.75 16.25V12.5C8.75 12.1458 8.86979 11.849 9.10938 11.6094C9.34896 11.3698 9.64583 11.25 10 11.25V10C10 9.3125 10.2448 8.72396 10.7344 8.23438C11.224 7.74479 11.8125 7.5 12.5 7.5C13.1875 7.5 13.776 7.74479 14.2656 8.23438C14.7552 8.72396 15 9.3125 15 10V11.25C15.3542 11.25 15.651 11.3698 15.8906 11.6094C16.1302 11.849 16.25 12.1458 16.25 12.5V16.25C16.25 16.6042 16.1302 16.901 15.8906 17.1406C15.651 17.3802 15.3542 17.5 15 17.5H10V17.5M11.25 11.25H13.75V10C13.75 9.64583 13.6302 9.34896 13.3906 9.10938C13.151 8.86979 12.8542 8.75 12.5 8.75C12.1458 8.75 11.849 8.86979 11.6094 9.10938C11.3698 9.34896 11.25 9.64583 11.25 10V11.25V11.25" fill="var(--fill-0, #3C83F6)"/>
</g>
</svg>
