<svg preserveAspectRatio="none" width="100%" height="100%" overflow="visible" style="display: block;" viewBox="0 0 11.0833 10.5" fill="none" xmlns="http://www.w3.org/2000/svg">
<g id="Container">
<path id="Icon" d="M1.16667 9.33333V9.33333V9.33333V9.33333V9.33333V9.33333V9.33333V9.33333V1.16667V1.16667V1.16667V1.16667V1.16667V1.16667V1.16667V1.16667C1.16667 1.16667 1.16667 1.38299 1.16667 1.81562C1.16667 2.24826 1.16667 2.80972 1.16667 3.5V7C1.16667 7.69028 1.16667 8.25174 1.16667 8.68437C1.16667 9.11701 1.16667 9.33333 1.16667 9.33333V9.33333M1.16667 10.5C0.845833 10.5 0.571181 10.3858 0.342708 10.1573C0.114236 9.92882 0 9.65417 0 9.33333V1.16667C0 0.845833 0.114236 0.571181 0.342708 0.342708C0.571181 0.114236 0.845833 0 1.16667 0H9.33333C9.65417 0 9.92882 0.114236 10.1573 0.342708C10.3858 0.571181 10.5 0.845833 10.5 1.16667V2.625H9.33333V1.16667V1.16667V1.16667H1.16667V1.16667V1.16667V9.33333V9.33333V9.33333H9.33333V9.33333V9.33333V7.875H10.5V9.33333C10.5 9.65417 10.3858 9.92882 10.1573 10.1573C9.92882 10.3858 9.65417 10.5 9.33333 10.5H1.16667V10.5M5.83333 8.16667C5.5125 8.16667 5.23785 8.05243 5.00938 7.82396C4.7809 7.59549 4.66667 7.32083 4.66667 7V3.5C4.66667 3.17917 4.7809 2.90451 5.00938 2.67604C5.23785 2.44757 5.5125 2.33333 5.83333 2.33333H9.91667C10.2375 2.33333 10.5122 2.44757 10.7406 2.67604C10.9691 2.90451 11.0833 3.17917 11.0833 3.5V7C11.0833 7.32083 10.9691 7.59549 10.7406 7.82396C10.5122 8.05243 10.2375 8.16667 9.91667 8.16667H5.83333V8.16667M9.91667 7V7V7V3.5V3.5V3.5H5.83333V3.5V3.5V7V7V7H9.91667V7M7.58333 6.125C7.82639 6.125 8.03299 6.03993 8.20312 5.86979C8.37326 5.69965 8.45833 5.49306 8.45833 5.25C8.45833 5.00694 8.37326 4.80035 8.20312 4.63021C8.03299 4.46007 7.82639 4.375 7.58333 4.375C7.34028 4.375 7.13368 4.46007 6.96354 4.63021C6.7934 4.80035 6.70833 5.00694 6.70833 5.25C6.70833 5.49306 6.7934 5.69965 6.96354 5.86979C7.13368 6.03993 7.34028 6.125 7.58333 6.125V6.125" fill="var(--fill-0, white)"/>
</g>
</svg>
