<svg preserveAspectRatio="none" width="100%" height="100%" overflow="visible" style="display: block;" viewBox="0 0 15.8333 15" fill="none" xmlns="http://www.w3.org/2000/svg">
<g id="Container">
<path id="Icon" d="M1.66667 13.3333V13.3333V13.3333V13.3333V13.3333V13.3333V13.3333V13.3333V1.66667V1.66667V1.66667V1.66667V1.66667V1.66667V1.66667V1.66667C1.66667 1.66667 1.66667 1.97569 1.66667 2.59375C1.66667 3.21181 1.66667 4.01389 1.66667 5V10C1.66667 10.9861 1.66667 11.7882 1.66667 12.4062C1.66667 13.0243 1.66667 13.3333 1.66667 13.3333V13.3333M1.66667 15C1.20833 15 0.815972 14.8368 0.489583 14.5104C0.163194 14.184 0 13.7917 0 13.3333V1.66667C0 1.20833 0.163194 0.815972 0.489583 0.489583C0.815972 0.163194 1.20833 0 1.66667 0H13.3333C13.7917 0 14.184 0.163194 14.5104 0.489583C14.8368 0.815972 15 1.20833 15 1.66667V3.75H13.3333V1.66667V1.66667V1.66667H1.66667V1.66667V1.66667V13.3333V13.3333V13.3333H13.3333V13.3333V13.3333V11.25H15V13.3333C15 13.7917 14.8368 14.184 14.5104 14.5104C14.184 14.8368 13.7917 15 13.3333 15H1.66667V15M8.33333 11.6667C7.875 11.6667 7.48264 11.5035 7.15625 11.1771C6.82986 10.8507 6.66667 10.4583 6.66667 10V5C6.66667 4.54167 6.82986 4.14931 7.15625 3.82292C7.48264 3.49653 7.875 3.33333 8.33333 3.33333H14.1667C14.625 3.33333 15.0174 3.49653 15.3438 3.82292C15.6701 4.14931 15.8333 4.54167 15.8333 5V10C15.8333 10.4583 15.6701 10.8507 15.3438 11.1771C15.0174 11.5035 14.625 11.6667 14.1667 11.6667H8.33333V11.6667M14.1667 10V10V10V5V5V5H8.33333V5V5V10V10V10H14.1667V10M10.8333 8.75C11.1806 8.75 11.4757 8.62847 11.7188 8.38542C11.9618 8.14236 12.0833 7.84722 12.0833 7.5C12.0833 7.15278 11.9618 6.85764 11.7188 6.61458C11.4757 6.37153 11.1806 6.25 10.8333 6.25C10.4861 6.25 10.191 6.37153 9.94792 6.61458C9.70486 6.85764 9.58333 7.15278 9.58333 7.5C9.58333 7.84722 9.70486 8.14236 9.94792 8.38542C10.191 8.62847 10.4861 8.75 10.8333 8.75V8.75" fill="var(--fill-0, white)"/>
</g>
</svg>
