<svg preserveAspectRatio="none" width="100%" height="100%" overflow="visible" style="display: block;" viewBox="0 0 38 32" fill="none" xmlns="http://www.w3.org/2000/svg">
<g id="Overlay">
<rect width="38" height="32" rx="16" fill="var(--fill-0, white)" fill-opacity="0.2"/>
<path id="Icon" d="M17.35 21L23 15.35L21.55 13.9L17.325 18.125L15.225 16.025L13.8 17.45L17.35 21V21M13.5 24C11.9833 24 10.6875 23.475 9.6125 22.425C8.5375 21.375 8 20.0917 8 18.575C8 17.275 8.39167 16.1167 9.175 15.1C9.95833 14.0833 10.9833 13.4333 12.25 13.15C12.6667 11.6167 13.5 10.375 14.75 9.425C16 8.475 17.4167 8 19 8C20.95 8 22.6042 8.67917 23.9625 10.0375C25.3208 11.3958 26 13.05 26 15V15V15C27.15 15.1333 28.1042 15.6292 28.8625 16.4875C29.6208 17.3458 30 18.35 30 19.5C30 20.75 29.5625 21.8125 28.6875 22.6875C27.8125 23.5625 26.75 24 25.5 24H13.5V24M13.5 22H25.5C26.2 22 26.7917 21.7583 27.275 21.275C27.7583 20.7917 28 20.2 28 19.5C28 18.8 27.7583 18.2083 27.275 17.725C26.7917 17.2417 26.2 17 25.5 17H24V15C24 13.6167 23.5125 12.4375 22.5375 11.4625C21.5625 10.4875 20.3833 10 19 10C17.6167 10 16.4375 10.4875 15.4625 11.4625C14.4875 12.4375 14 13.6167 14 15V15H13.5C12.5333 15 11.7083 15.3417 11.025 16.025C10.3417 16.7083 10 17.5333 10 18.5C10 19.4667 10.3417 20.2917 11.025 20.975C11.7083 21.6583 12.5333 22 13.5 22V22M19 16V16V16V16V16V16V16V16V16V16V16V16V16V16V16V16V16V16V16" fill="var(--fill-0, white)"/>
</g>
</svg>
