<svg preserveAspectRatio="none" width="100%" height="100%" overflow="visible" style="display: block;" viewBox="0 0 27.5 20" fill="none" xmlns="http://www.w3.org/2000/svg">
<g id="Container">
<path id="Icon" d="M0 20V15C0 14.2917 0.244792 13.6979 0.734375 13.2188C1.22396 12.7396 1.8125 12.5 2.5 12.5H6.59375C7.01042 12.5 7.40625 12.6042 7.78125 12.8125C8.15625 13.0208 8.45833 13.3021 8.6875 13.6562C9.29167 14.4688 10.0365 15.1042 10.9219 15.5625C11.8073 16.0208 12.75 16.25 13.75 16.25C14.7708 16.25 15.724 16.0208 16.6094 15.5625C17.4948 15.1042 18.2292 14.4688 18.8125 13.6562C19.0833 13.3021 19.401 13.0208 19.7656 12.8125C20.1302 12.6042 20.5104 12.5 20.9062 12.5H25C25.7083 12.5 26.3021 12.7396 26.7812 13.2188C27.2604 13.6979 27.5 14.2917 27.5 15V20H18.75V17.1562C18.0208 17.6771 17.2344 18.0729 16.3906 18.3438C15.5469 18.6146 14.6667 18.75 13.75 18.75C12.8542 18.75 11.9792 18.6094 11.125 18.3281C10.2708 18.0469 9.47917 17.6458 8.75 17.125V20H0V20M13.75 15C12.9583 15 12.2083 14.8177 11.5 14.4531C10.7917 14.0885 10.1979 13.5833 9.71875 12.9375C9.36458 12.4167 8.92188 12.0052 8.39062 11.7031C7.85938 11.401 7.28125 11.25 6.65625 11.25C7.11458 10.4792 8.08333 9.86979 9.5625 9.42188C11.0417 8.97396 12.4375 8.75 13.75 8.75C15.0625 8.75 16.4583 8.97396 17.9375 9.42188C19.4167 9.86979 20.3854 10.4792 20.8438 11.25C20.2396 11.25 19.6667 11.401 19.125 11.7031C18.5833 12.0052 18.1354 12.4167 17.7812 12.9375C17.3229 13.6042 16.7396 14.1146 16.0312 14.4688C15.3229 14.8229 14.5625 15 13.75 15V15M3.75 11.25C2.70833 11.25 1.82292 10.8854 1.09375 10.1562C0.364583 9.42708 0 8.54167 0 7.5C0 6.4375 0.364583 5.54688 1.09375 4.82812C1.82292 4.10938 2.70833 3.75 3.75 3.75C4.8125 3.75 5.70312 4.10938 6.42188 4.82812C7.14062 5.54688 7.5 6.4375 7.5 7.5C7.5 8.54167 7.14062 9.42708 6.42188 10.1562C5.70312 10.8854 4.8125 11.25 3.75 11.25V11.25M23.75 11.25C22.7083 11.25 21.8229 10.8854 21.0938 10.1562C20.3646 9.42708 20 8.54167 20 7.5C20 6.4375 20.3646 5.54688 21.0938 4.82812C21.8229 4.10938 22.7083 3.75 23.75 3.75C24.8125 3.75 25.7031 4.10938 26.4219 4.82812C27.1406 5.54688 27.5 6.4375 27.5 7.5C27.5 8.54167 27.1406 9.42708 26.4219 10.1562C25.7031 10.8854 24.8125 11.25 23.75 11.25V11.25M13.75 7.5C12.7083 7.5 11.8229 7.13542 11.0938 6.40625C10.3646 5.67708 10 4.79167 10 3.75C10 2.6875 10.3646 1.79688 11.0938 1.07812C11.8229 0.359375 12.7083 0 13.75 0C14.8125 0 15.7031 0.359375 16.4219 1.07812C17.1406 1.79688 17.5 2.6875 17.5 3.75C17.5 4.79167 17.1406 5.67708 16.4219 6.40625C15.7031 7.13542 14.8125 7.5 13.75 7.5V7.5" fill="var(--fill-0, #3C83F6)"/>
</g>
</svg>
